<svg width="400" height="353" viewBox="0 0 400 353" fill="none"
  xmlns="http://www.w3.org/2000/svg">
  <path fill-rule="evenodd" clip-rule="evenodd" d="M200.507 89.7702C232.422 117.633 252.01 153.094 253.952 187.204C255.894 223.509 237.066 257.282 202.955 279.403C163.61 304.732 113.88 309.123 76.3082 290.126C31.2218 267.752 -3.73274 223.425 0.319965 184.84C3.44393 150.054 39.1583 114.593 77.1524 103.279C105.606 95.3426 142.418 100.409 161.162 115.775C179.99 130.973 183.958 139.754 189.024 147.521C200 164.154 202.533 179.858 195.188 191.679C189.277 201.388 172.391 208.818 152.296 212.787C131.189 217.008 110.418 216.417 96.825 211.098C81.0363 204.766 74.0285 191.932 77.5746 175.975C80.9519 160.608 93.7854 142.202 106.703 138.403C113.796 136.292 120.635 138.234 126.123 143.637C131.189 148.703 133.721 154.36 133.468 160.693C133.299 165.59 131.526 170.233 128.571 174.455C126.883 176.988 125.194 178.676 123.759 180.112C120.972 182.645 116.751 182.814 113.627 180.534C110.672 178.254 109.659 174.202 111.263 170.824C112.951 166.94 114.049 161.115 113.205 160.27C111.516 158.751 110.503 158.413 109.236 158.751C104.339 160.186 97.5848 169.727 95.8962 177.579C94.2076 184.755 96.0651 188.555 101.806 190.835C119.368 197.758 163.104 185.769 169.774 174.539C171.209 172.26 171.884 169.811 171.884 166.94C171.884 155.964 160.908 140.513 148.919 131.057C130.935 119.237 112.107 116.113 91.337 121.77C59.6752 131.31 33.5014 153.854 31.3907 177.494C28.0134 209.241 48.6991 243.857 80.3609 259.562C109.574 274.337 150.439 270.791 181.679 250.528C207.515 233.895 221.952 209.409 221.952 182.814V179.099C220.264 149.21 205.066 123.88 182.101 103.11C160.486 83.6911 132.033 69.3378 104.171 63.7653C100.287 62.921 97.7537 59.5437 97.7537 55.5755C98.0914 51.185 101.553 47.9766 105.69 47.9766C134.988 47.9766 171.209 64.0186 200.507 89.6013V89.7702ZM399.343 172.513C401.453 178.761 398.498 185.178 390.224 190.244C386.002 192.776 380.937 193.03 369.538 192.185L365.823 192.017H359.407L332.642 191.51L322.003 191.003C318.626 190.835 317.36 190.666 315.671 189.99C312.463 188.724 310.605 186.022 310.605 182.391C310.605 178.761 312.294 176.143 315.418 174.793C317.106 173.948 318.457 173.611 322.172 172.935L333.824 171.246C340.156 170.571 343.365 170.064 346.32 169.558C348.008 169.389 349.697 169.051 351.386 168.714C354.087 168.122 356.114 167.531 361.011 166.181C368.187 164.154 371.649 163.31 376.04 162.55C385.834 161.115 396.303 164.745 399.174 172.682L399.343 172.513ZM307.144 61.0635L299.038 68.409C296.505 70.5198 295.492 71.3641 293.719 72.124C290.679 73.5593 287.387 73.1372 284.854 70.6042C282.321 68.0713 281.814 65.0318 283.165 61.9078C283.756 60.0503 284.516 58.9527 286.796 55.7443L293.888 46.4569C298.109 41.391 299.798 38.8581 301.656 36.494C304.189 33.1167 306.046 30.1616 309.845 23.576L312.378 19.3544C314.489 15.9771 316.262 13.1065 318.12 10.5735C324.03 2.63699 334.162 -2.34446 341.592 1.11722C347.502 3.98789 349.866 10.4047 347.502 19.6921C346.235 24.5047 342.689 28.3041 333.993 35.7341L331.291 38.0982L326.563 42.6575L307.144 61.2324V61.0635ZM344.716 322.21C352.736 328.12 357.634 338.252 354.172 345.597C351.47 351.507 344.884 353.872 335.597 351.507C330.7 350.157 326.901 346.61 319.555 337.998L317.191 335.212L312.547 330.484L293.972 311.065L286.796 303.297C284.6 300.764 283.756 299.751 282.996 297.978C281.645 294.938 282.152 291.646 284.685 289.113C287.049 286.58 290.257 286.073 293.381 287.424C295.07 288.015 296.336 288.775 299.545 291.055L308.832 298.147L318.964 305.915C321.497 307.941 324.452 309.714 328.842 312.331L331.629 314.02C338.13 317.735 341.169 319.592 344.716 322.21V322.21Z" fill="url(#paint0_linear_36:10)"/>
  <defs>
    <linearGradient id="paint0_linear_36:10" x1="200" y1="352.413" x2="200" y2="0" gradientUnits="userSpaceOnUse">
      <stop stop-color="#FF7700"/>
      <stop offset="1" stop-color="#FF9900"/>
    </linearGradient>
  </defs>
</svg>
